<?xml version="1.0" standalone="no"?>
<!DOCTYPE svg PUBLIC "-//W3C//DTD SVG 20010904//EN"
 "http://www.w3.org/TR/2001/REC-SVG-20010904/DTD/svg10.dtd">
<svg version="1.0" xmlns="http://www.w3.org/2000/svg"
 width="442.000000pt" height="442.000000pt" viewBox="0 0 442.000000 442.000000"
 preserveAspectRatio="xMidYMid meet">
<metadata>
Created by potrace 1.14, written by Peter Selinger 2001-2017
</metadata>
<g transform="translate(0.000000,442.000000) scale(0.100000,-0.100000)"
fill="#000000" stroke="none">
<path d="M1902 3873 c-7 -13 -6 -24 3 -37 20 -27 47 -13 43 21 -4 33 -32 42
-46 16z"/>
<path d="M2793 3773 c-15 -5 -17 -29 -4 -37 12 -8 31 17 23 30 -4 6 -13 9 -19
7z"/>
<path d="M2584 3752 c-6 -4 -16 -23 -23 -43 -14 -44 -67 -94 -103 -98 -31 -3
-63 27 -78 75 -11 33 -44 54 -60 37 -5 -4 -11 -23 -15 -41 -8 -45 -26 -72 -52
-78 -33 -9 -49 0 -80 46 -41 58 -93 66 -95 14 0 -10 2 -45 6 -76 5 -51 4 -57
-14 -63 -11 -4 -18 -11 -15 -16 10 -15 -2 -10 -40 15 -24 16 -45 23 -63 20
-58 -10 -128 -37 -147 -58 -20 -21 -29 -66 -13 -66 5 0 6 -4 3 -10 -3 -5 -3
-10 2 -10 7 0 34 -50 39 -70 1 -7 16 -43 22 -55 3 -5 -4 -1 -16 9 -12 11 -22
23 -22 28 0 10 -145 156 -171 173 -9 6 -34 21 -55 35 -112 74 -282 122 -424
122 -79 0 -135 -5 -135 -12 0 -1 -8 -3 -18 -5 -18 -3 -89 -53 -95 -66 -2 -4
-12 -17 -23 -30 -10 -12 -24 -41 -30 -63 -50 -179 41 -446 216 -631 73 -78 81
-116 28 -146 -35 -20 -131 -18 -191 5 -23 9 -61 23 -84 32 -45 16 -109 21
-128 9 -16 -10 -40 -69 -40 -99 0 -39 24 -55 74 -51 24 2 59 11 77 21 49 26
210 26 261 1 49 -25 89 -19 105 14 34 71 114 75 149 7 11 -22 13 -52 8 -140
-4 -62 -7 -118 -7 -125 0 -8 -8 -8 -29 3 -15 8 -30 14 -33 14 -3 0 -6 0 -7 1
-4 1 -48 10 -65 13 -7 1 -15 5 -19 9 -7 7 -41 -9 -60 -27 -16 -16 -8 -72 13
-94 10 -11 28 -18 40 -17 13 1 23 -3 23 -9 0 -7 3 -7 8 1 9 13 44 11 49 -3 2
-5 -5 -10 -14 -11 -43 -3 -63 -8 -63 -14 0 -4 -7 -15 -16 -23 -8 -9 -11 -16
-6 -16 5 0 9 -13 10 -29 1 -35 42 -81 72 -81 6 0 5 -8 -2 -19 -16 -26 0 -90
27 -105 11 -6 22 -13 25 -16 10 -10 29 -10 54 0 22 8 29 4 58 -29 37 -44 76
-107 60 -97 -24 15 -112 9 -132 -9 -19 -17 -24 -65 -8 -65 4 0 8 -7 8 -15 0
-9 10 -15 25 -16 29 -2 32 -2 64 -13 l23 -8 -26 -24 c-16 -15 -26 -35 -26 -52
0 -37 39 -82 73 -86 39 -4 29 -21 -13 -21 -40 0 -68 10 -91 34 -17 18 -17 18
-26 61 -6 34 -43 50 -68 30 -17 -14 -21 -75 -5 -65 6 3 10 1 10 -4 0 -6 12
-11 28 -11 29 -1 66 -23 55 -33 -3 -4 -1 -7 5 -7 7 0 11 -3 11 -7 -1 -5 -1
-10 1 -13 1 -3 4 -23 6 -44 3 -21 9 -47 14 -57 36 -66 -24 -127 -91 -93 -14 7
-43 15 -65 18 -49 6 -74 15 -98 38 -24 22 -74 24 -83 2 -8 -21 16 -43 53 -50
36 -6 56 -20 117 -76 44 -42 47 -47 42 -84 -3 -21 -9 -52 -13 -69 -10 -35 -6
-91 9 -120 16 -33 48 -47 101 -47 81 1 130 33 270 174 113 113 152 148 134
119 -6 -10 40 -26 63 -22 8 2 29 14 47 28 18 13 41 26 51 27 9 2 24 17 33 34
16 35 19 36 39 23 17 -11 4 -34 -15 -27 -8 3 -14 -1 -14 -10 0 -8 -13 -26 -29
-40 -32 -27 -44 -66 -27 -90 6 -8 28 -19 49 -24 34 -7 38 -6 54 21 12 20 20
25 29 18 7 -5 10 -18 7 -29 -13 -50 85 -91 133 -55 21 16 35 19 33 8 -5 -31
30 -53 85 -53 36 0 64 26 89 81 23 51 25 62 16 80 -7 14 -3 16 29 13 20 -2 46
-6 57 -8 11 -3 33 -5 49 -5 26 -1 28 -3 21 -28 -19 -74 -10 -113 25 -113 11 0
20 -4 20 -10 0 -6 9 -6 26 0 14 6 30 8 34 5 11 -7 51 35 44 46 -9 16 15 19 41
5 19 -10 36 -12 58 -5 33 9 80 56 71 71 -6 10 10 11 20 1 25 -25 100 -2 115
35 6 15 10 56 9 92 l-3 65 38 18 c36 18 38 18 75 0 20 -10 36 -24 34 -31 -1
-6 4 -12 11 -12 8 0 31 -21 53 -48 21 -26 71 -79 111 -119 75 -73 109 -89 187
-86 95 5 176 94 176 194 0 107 -47 168 -203 262 -78 48 -107 72 -107 90 0 1
12 3 27 4 39 2 63 36 63 90 0 36 3 44 15 40 8 -4 17 -2 20 4 4 5 10 7 14 5 4
-3 8 0 9 7 4 36 11 69 15 74 3 2 1 19 -4 36 -17 55 -18 67 -6 67 25 0 40 19
47 56 5 30 2 46 -13 67 -19 28 -19 29 1 43 26 18 40 98 23 127 -7 10 -9 17 -4
14 5 -3 15 -2 22 3 8 5 42 -2 85 -17 62 -22 89 -25 208 -26 l137 0 35 31 c43
38 67 45 108 35 49 -13 174 -9 192 7 20 16 20 41 0 84 -23 47 -52 59 -138 59
-86 0 -101 -8 -118 -66 -18 -59 -63 -73 -163 -52 -16 4 -48 8 -70 10 -22 2
-69 6 -105 10 -36 4 -83 3 -105 -2 -48 -10 -98 -6 -89 8 9 15 -22 56 -48 65
-25 8 -53 32 -45 40 2 3 15 6 27 7 44 3 51 95 10 132 -16 15 -37 20 -93 24
-16 2 66 73 92 81 14 4 46 2 71 -4 46 -12 130 -3 130 14 0 4 18 15 39 23 45
18 53 29 58 72 2 18 16 42 35 60 18 17 32 29 33 27 0 -5 38 8 65 23 15 8 25
23 25 36 0 22 -7 28 -58 48 -18 7 -33 24 -43 49 -8 20 -26 58 -40 84 -23 44
-34 87 -36 149 -1 26 52 141 78 169 8 8 31 33 53 56 21 22 51 59 65 81 53 80
19 165 -65 165 -38 0 -98 -10 -111 -18 -4 -3 -16 -7 -25 -9 -19 -3 -132 -54
-148 -67 -5 -4 -41 -31 -80 -59 -38 -29 -79 -61 -91 -73 -12 -12 -43 -40 -70
-62 -27 -23 -71 -63 -99 -89 -73 -68 -92 -80 -110 -65 -13 11 -64 11 -75 0 -3
-3 -18 -16 -34 -28 -16 -12 -25 -22 -20 -22 5 0 -4 -11 -20 -25 -35 -30 -43
-31 -51 -5 -7 24 3 63 15 55 13 -8 31 21 44 72 15 59 12 77 -17 91 -41 21
-107 15 -107 -9 0 -6 -4 -7 -10 -4 -5 3 -10 -1 -10 -9 0 -9 -4 -16 -10 -16 -5
0 -10 -7 -10 -15 0 -8 -5 -15 -11 -15 -5 0 -8 -4 -5 -9 3 -5 -2 -15 -11 -22
-15 -12 -16 -12 -8 1 20 32 31 110 16 110 -6 0 -11 5 -11 10 0 16 -38 49 -62
54 -13 3 -34 7 -47 10 -13 3 -36 -1 -52 -9 -26 -14 -28 -13 -34 5 -7 23 -53
50 -84 50 -27 0 -31 9 -17 50 8 26 23 41 60 61 28 14 51 30 53 35 3 11 -79 64
-98 64 -8 0 -19 -4 -25 -8z m-514 -428 c0 -6 11 -15 25 -18 21 -5 23 -9 13
-19 -7 -7 -29 -19 -48 -27 -19 -7 -39 -17 -44 -22 -21 -18 -25 -7 -5 13 11 11
18 27 15 35 -3 9 -2 23 3 33 11 20 41 24 41 5z m627 -54 c6 0 14 -4 17 -9 4
-5 -2 -8 -11 -6 -10 2 -18 4 -18 5 0 1 -11 3 -24 6 -48 9 -67 40 -28 46 14 2
27 -4 37 -19 8 -13 20 -23 27 -23z m1038 -146 c14 -13 26 -35 26 -49 1 -14 2
-31 3 -37 5 -34 -26 -80 -76 -112 -14 -9 -36 -37 -47 -62 -27 -58 -59 -69
-136 -50 -11 2 -23 5 -27 5 -4 1 -16 11 -28 23 -23 25 -25 53 -7 84 18 32 175
197 199 210 33 18 66 14 93 -12z m-2421 -880 c3 -8 2 -12 -4 -9 -6 3 -10 10
-10 16 0 14 7 11 14 -7z m2138 -108 c7 4 8 2 4 -4 -4 -7 -16 -17 -26 -22 -19
-10 -19 -9 -8 16 7 14 14 21 16 15 2 -6 9 -8 14 -5z m-28 -134 c2 -4 1 -14 -4
-21 -10 -17 -31 -5 -23 14 6 16 19 20 27 7z m-1860 -309 c26 -29 26 -31 7 -26
-11 3 -21 9 -21 14 0 5 -3 8 -7 8 -27 -4 -33 1 -21 21 7 10 12 18 13 17 0 -1
13 -16 29 -34z m66 -94 c10 -22 10 -33 2 -41 -16 -16 -21 -8 -23 33 -2 18 -7
41 -13 49 -9 13 -9 13 5 2 9 -7 22 -26 29 -43z m505 -379 c-3 -5 -10 -10 -16
-10 -5 0 -9 5 -9 10 0 6 7 10 16 10 8 0 12 -4 9 -10z m140 -30 c3 -5 2 -10 -4
-10 -5 0 -13 5 -16 10 -3 6 -2 10 4 10 5 0 13 -4 16 -10z m-205 -34 c0 -3 -4
-8 -10 -11 -5 -3 -10 -1 -10 4 0 6 5 11 10 11 6 0 10 -2 10 -4z"/>
<path d="M553 3362 c-22 -3 -73 -48 -73 -64 0 -32 20 -45 62 -41 24 2 56 9 71
15 23 9 27 16 24 41 -2 24 -10 34 -33 42 -16 6 -39 9 -51 7z"/>
<path d="M694 2929 c-3 -6 -2 -15 2 -19 12 -12 38 5 30 19 -9 14 -23 14 -32 0z"/>
<path d="M21 2796 c-22 -27 -6 -63 31 -71 18 -3 61 -13 94 -21 55 -13 136 -19
201 -15 27 1 41 38 21 57 -18 18 -141 44 -283 60 -39 5 -54 2 -64 -10z"/>
<path d="M916 2335 c-6 -17 16 -31 33 -21 13 9 2 36 -14 36 -7 0 -16 -7 -19
-15z"/>
<path d="M675 2127 c-13 -10 -16 -21 -11 -41 5 -22 11 -27 34 -24 21 2 28 9
30 32 5 41 -20 56 -53 33z"/>
<path d="M128 2008 c-37 -13 -40 -64 -6 -77 34 -12 78 6 78 32 0 43 -28 60
-72 45z"/>
<path d="M1033 1898 c-52 -13 -84 -108 -48 -138 24 -20 101 -6 149 27 40 28
57 66 39 84 -18 18 -108 35 -140 27z"/>
<path d="M736 1879 c-65 -10 -101 -37 -101 -75 0 -27 3 -29 40 -30 69 -1 134
36 135 77 0 28 -22 36 -74 28z"/>
<path d="M3721 1647 c-13 -13 -14 -47 -3 -63 7 -10 81 -56 136 -84 29 -15 96
-79 96 -92 0 -4 20 -19 45 -33 89 -52 134 -13 78 68 -15 23 -30 44 -33 47 -3
3 -12 19 -20 35 -9 17 -31 38 -50 47 -132 65 -230 94 -249 75z"/>
<path d="M366 1493 c-3 -4 -12 -8 -19 -9 -7 -1 -28 -9 -47 -17 -36 -15 -41
-15 -126 0 -56 10 -118 -4 -139 -33 -22 -30 14 -151 48 -163 11 -4 41 -4 66 1
25 5 76 6 113 3 54 -5 74 -3 105 13 21 11 53 22 72 26 69 13 75 35 34 126 -25
58 -28 60 -63 60 -20 0 -40 -3 -44 -7z"/>
<path d="M414 1116 c-10 -26 4 -48 28 -44 17 2 23 10 23 28 0 18 -6 26 -23 28
-13 2 -25 -3 -28 -12z"/>
<path d="M2980 1110 c-19 -4 -26 -13 -28 -36 -2 -17 3 -35 10 -41 13 -10 124
-38 190 -47 l38 -6 -22 45 c-18 37 -28 46 -57 51 -20 4 -40 10 -46 13 -26 18
-62 27 -85 21z"/>
<path d="M1047 1044 c-3 -3 -36 -16 -73 -28 -75 -25 -96 -45 -78 -73 16 -26
46 -27 116 -2 79 28 90 36 86 67 -3 23 -39 48 -51 36z"/>
<path d="M3226 963 c-2 -2 5 -22 15 -44 15 -29 25 -39 44 -39 13 0 28 8 33 17
12 21 -5 63 -27 64 -9 1 -26 3 -38 4 -12 1 -24 0 -27 -2z"/>
<path d="M3455 861 c-3 -5 -1 -12 5 -16 5 -3 10 1 10 9 0 18 -6 21 -15 7z"/>
<path d="M656 754 c-33 -32 -6 -85 40 -76 30 6 48 36 40 68 -5 18 -13 24 -35
24 -16 0 -37 -7 -45 -16z"/>
<path d="M2561 761 c-17 -11 -10 -46 9 -46 17 0 26 33 13 46 -4 4 -14 4 -22 0z"/>
<path d="M1566 731 c-22 -25 -35 -80 -25 -108 9 -26 52 -35 79 -16 24 17 45
83 36 117 -5 21 -12 26 -40 26 -20 0 -40 -8 -50 -19z"/>
<path d="M2884 656 c-6 -6 -9 -17 -6 -24 5 -17 39 -15 46 3 7 19 -25 37 -40
21z"/>
<path d="M1954 565 c-4 -9 -2 -21 4 -27 16 -16 47 -5 47 17 0 26 -42 34 -51
10z"/>
</g>
</svg>
